<?xml version="1.0" encoding="utf-8"?>
<!-- Generator: Adobe Illustrator 18.1.1, SVG Export Plug-In . SVG Version: 6.00 Build 0)  -->
<!DOCTYPE svg PUBLIC "-//W3C//DTD SVG 1.1//EN" "http://www.w3.org/Graphics/SVG/1.1/DTD/svg11.dtd">
<svg version="1.1" id="Attention" xmlns="http://www.w3.org/2000/svg" xmlns:xlink="http://www.w3.org/1999/xlink" x="0px" y="0px"
	 viewBox="0 0 740 280" enable-background="new 0 0 740 280" xml:space="preserve">
<g id="attention_1_">
	<g>
		<g>
			<path class="letter-flip" style="animation-delay:100ms" fill="#FFFFFF" d="M90.1,240.4c-2.2-17-4.4-34.1-6.6-51.1c-4,0.5-6,0.8-9.9,1.3c-2.2,18.3-4.3,36.6-6.4,54.9
				c-3.7,0.9-5.5,1.3-9.2,2.2c2.1-18.6,4.2-37.2,6.4-55.8c-2.8,0.4-4.2,0.6-7,1c0-3.5,0-5.3,0-8.8c3.4-0.4,5-0.7,8.4-1.1
				c3.1-25.2,6.3-50.4,9.6-75.6c3.2,0,4.8,0,8,0c5.1,43.7,10.4,87.4,15.7,131C95.4,239.3,93.6,239.7,90.1,240.4z M78.9,146.3
				c-1.5,11.9-3,23.8-4.5,35.7c3.2-0.4,4.8-0.6,8.1-1C81.3,169.5,80.1,157.9,78.9,146.3z"/>
			<path class="letter-flip" style="animation-delay:200ms" fill="#FFFFFF" d="M161.4,115c-0.3,37.4-0.5,74.9-0.8,112.3c-3.9,0.6-5.8,0.9-9.6,1.6c0.2-37.9,0.5-75.9,0.7-113.8
				c-5.2,0.1-7.8,0.1-13,0.1c0-3.1,0-4.6,0-7.7c11.7,0,23.4,0,35.1,0c0,2.9,0,4.4-0.1,7.4C168.9,114.9,166.4,114.9,161.4,115z"/>
			<path class="letter-flip" style="animation-delay:300ms" fill="#FFFFFF" d="M236.1,114.4c-0.2,34.4-0.5,68.9-0.7,103.3c-3.9,0.4-5.8,0.6-9.7,1c0.2-34.7,0.5-69.5,0.7-104.2
				c-5.2,0-7.8,0.1-13,0.1c0-2.8,0-4.2,0.1-7c11.7,0,23.4,0,35.1,0c0,2.7,0,4.1,0,6.8C243.6,114.3,241.1,114.3,236.1,114.4z"/>
			<path class="letter-flip" style="animation-delay:400ms" fill="#FFFFFF" d="M295.3,212.9c0.1-13.8,0.1-27.5,0.2-41.3c-3.4,0.1-5.2,0.2-8.6,0.3c0-2.7,0-4,0-6.6
				c3.4-0.1,5.2-0.2,8.6-0.3c0.1-19.2,0.2-38.4,0.3-57.6c10.9,0,21.9,0,32.8,0c0,2.6,0,3.9,0,6.5c-9.4,0-14.1,0-23.5,0.1
				c-0.1,16.9-0.1,33.9-0.2,50.8c9.7-0.3,14.6-0.4,24.3-0.5c0,2.6,0,3.9,0,6.5c-9.7,0.2-14.6,0.3-24.3,0.6c0,11.5-0.1,23-0.1,34.5
				c9.7-0.4,14.6-0.6,24.3-0.9c0,2.6,0,3.9,0,6.5C317.8,211.9,306.6,212.4,295.3,212.9z"/>
			<path class="letter-flip" style="animation-delay:500ms" fill="#FFFFFF" d="M397.2,211.1c-5.7-21.4-11.5-42.8-17.2-64.2c0,21.3-0.1,42.7-0.1,64c-3.9,0-5.8,0-9.7,0
				c0-34.5,0-68.9,0-103.4c3.6,0,5.4,0,8.9,0c5.9,22.2,11.9,44.4,17.8,66.6c0-22.2-0.1-44.4-0.1-66.6c3.7,0,5.6,0,9.3,0
				c0.1,34.6,0.2,69.2,0.2,103.7C402.7,211.1,400.9,211.1,397.2,211.1z"/>
			<path class="letter-flip" style="animation-delay:600ms" fill="#FFFFFF" d="M468.4,114.1c0.2,33.5,0.4,66.9,0.6,100.4c-3.9-0.3-5.8-0.4-9.7-0.7c-0.2-33.2-0.4-66.5-0.5-99.7
				c-5.2,0-7.8,0-13-0.1c0-2.6,0-4,0-6.6c11.7,0,23.4,0,35.1,0c0,2.7,0,4.1,0,6.8C475.9,114.2,473.4,114.2,468.4,114.1z"/>
			<path class="letter-flip" style="animation-delay:700ms" fill="#FFFFFF" d="M522,219.5c-0.3-37.3-0.5-74.7-0.8-112c3.9,0,5.8,0,9.6,0c0.3,37.7,0.6,75.4,0.8,113.2
				C527.8,220.2,525.9,219.9,522,219.5z"/>
			<path class="letter-flip" style="animation-delay:800ms" fill="#FFFFFF" d="M589.5,229c-5.5-0.9-9.9-2.6-13.1-5.1c-3.3-2.5-4.9-6.2-5-11.3c-0.2-30.8-0.4-61.6-0.6-92.4
				c0-3.7,1.7-6.7,5.3-9.2c3.5-2.5,7.8-3.8,12.9-3.8c4.9,0,9.1,1.3,12.5,3.9c3.4,2.6,5.1,5.9,5.1,9.8c0.2,32.4,0.4,64.7,0.6,97.1
				c0,5.4-1.6,8.8-4.8,10.2C599,229.6,594.7,229.8,589.5,229z M597.2,120.7c0-1.7-0.8-3.2-2.5-4.3c-1.7-1.1-3.6-1.6-5.7-1.7
				c-2.2,0-4.3,0.5-6,1.5c-1.8,1-2.6,2.3-2.6,3.9c0.2,31.2,0.4,62.5,0.6,93.7c0,4.3,2.9,6.9,8.5,7.8c5.5,0.9,8.3-0.8,8.3-5.1
				C597.6,184.6,597.4,152.7,597.2,120.7z"/>
			<path class="letter-flip" style="animation-delay:900ms" fill="#FFFFFF" d="M673.8,245.7c-5.5-29-11.2-58-17.1-87c0,27.7,0,55.4,0,83.2c-3.8-0.8-5.7-1.2-9.6-2.1
				c-0.1-44.1-0.3-88.2-0.4-132.3c3.6,0,5.4,0,8.9,0c6.1,29.6,12,59.1,17.8,88.8c0-29.6-0.1-59.2-0.1-88.8c3.7,0,5.6,0,9.3,0
				c0,46.7,0,93.4,0,140.1C679.2,246.9,677.4,246.5,673.8,245.7z"/>
		</g>
	</g>
	<g id="enriched" class="letter-fade">
		<g>
			<path fill="#FFFFFF" d="M173.6,271.1l-3.7-12.6l-3.8,12.6l-4.8-15.2h0.8l3.9,12.3l3.8-12.5l3.8,12.5l3.9-12.3h0.9L173.6,271.1z"
				/>
			<path fill="#FFFFFF" d="M191.1,270.8v-15h0.8v15H191.1z"/>
			<path fill="#FFFFFF" d="M207.8,256.7v14.1H207v-14.1h-3.3v-0.9h7.5v0.9H207.8z"/>
			<path fill="#FFFFFF" d="M232,270.8V263h-8.3v7.8h-0.8v-15h0.8v6.3h8.3v-6.3h0.9v15H232z"/>
			<path fill="#FFFFFF" d="M262,270.8v-15h7.2v0.9h-6.3v5.5h6.3v0.9h-6.3v6.9h6.3v0.9H262z"/>
			<path fill="#FFFFFF" d="M282.4,258.1v12.7h-0.8v-15.1l11.2,13.1v-13h0.9v15.2L282.4,258.1z"/>
			<path fill="#FFFFFF" d="M313.2,270.8l-4.8-7.5h-1.6v7.5h-0.8v-15h3.5c0.6,0,1.1,0.1,1.6,0.2c0.5,0.2,0.9,0.4,1.3,0.7
				c0.4,0.3,0.7,0.7,0.9,1.2c0.2,0.5,0.3,1,0.3,1.6c0,0.7-0.1,1.2-0.3,1.7c-0.2,0.5-0.5,0.9-0.9,1.2c-0.4,0.3-0.8,0.5-1.3,0.7
				c-0.5,0.1-1.1,0.2-1.7,0.2l4.8,7.5H313.2z M312.4,258.3c-0.2-0.4-0.4-0.7-0.7-0.9c-0.3-0.2-0.6-0.4-1-0.5
				c-0.4-0.1-0.8-0.2-1.3-0.2h-2.6v5.8h2.8c0.9,0,1.6-0.3,2.2-0.8c0.6-0.5,0.8-1.2,0.8-2.2C312.6,259.1,312.5,258.7,312.4,258.3z"/>
			<path fill="#FFFFFF" d="M326.6,270.8v-15h0.8v15H326.6z"/>
			<path fill="#FFFFFF" d="M351.5,270c-0.8,0.6-1.8,0.9-3.2,1.1c-0.2,0-0.3,0-0.5,0c-0.2,0-0.4,0-0.6,0c-2.3,0-4.1-0.7-5.5-2.1
				c-1.4-1.4-2.2-3.3-2.2-5.6c0-2.3,0.7-4.1,2.1-5.5c1.4-1.4,3.3-2.2,5.6-2.2c1.3,0,2.4,0.2,3.5,0.6c0.6,0.2,1.2,0.6,1.8,1v1.1
				c-0.6-0.5-1.2-0.9-1.9-1.2c-1.1-0.4-2.2-0.7-3.3-0.7c-2,0-3.6,0.6-4.9,1.9c-1.3,1.3-1.9,2.9-1.9,4.9c0,2,0.6,3.6,1.9,4.9
				c1.3,1.3,2.9,1.9,4.9,1.9c1.2,0,2.3-0.2,3.3-0.7c0.5-0.3,1.2-0.7,2-1.3v1L351.5,270z"/>
			<path fill="#FFFFFF" d="M373.4,270.8V263h-8.3v7.8h-0.8v-15h0.8v6.3h8.3v-6.3h0.9v15H373.4z"/>
			<path fill="#FFFFFF" d="M386.6,270.8v-15h7.2v0.9h-6.3v5.5h6.3v0.9h-6.3v6.9h6.3v0.9H386.6z"/>
			<path fill="#FFFFFF" d="M416,268.6c-1.3,1.5-2.9,2.3-4.9,2.3h-5v-15h5c2,0,3.7,0.8,4.9,2.3c1.2,1.4,1.8,3.2,1.8,5.2
				C417.8,265.4,417.2,267.2,416,268.6z M415.4,258.7c-1.1-1.3-2.5-2-4.3-2h-4.2V270h4.2c1.5,0,2.9-0.6,4-1.7
				c1.2-1.2,1.8-2.9,1.8-4.9C416.9,261.5,416.4,260,415.4,258.7z"/>
			<path fill="#FFFFFF" d="M458.3,270c-0.8,0.6-1.8,0.9-3.2,1.1c-0.2,0-0.3,0-0.5,0c-0.2,0-0.4,0-0.6,0c-2.3,0-4.1-0.7-5.5-2.1
				c-1.4-1.4-2.2-3.3-2.2-5.6c0-2.3,0.7-4.1,2.1-5.5c1.4-1.4,3.3-2.2,5.6-2.2c1.3,0,2.4,0.2,3.5,0.6c0.6,0.2,1.2,0.6,1.8,1v1.1
				c-0.6-0.5-1.2-0.9-1.9-1.2c-1.1-0.4-2.2-0.7-3.3-0.7c-2,0-3.6,0.6-4.9,1.9c-1.3,1.3-1.9,2.9-1.9,4.9c0,2,0.6,3.6,1.9,4.9
				c1.3,1.3,2.9,1.9,4.9,1.9c1.2,0,2.3-0.2,3.3-0.7c0.5-0.3,1.2-0.7,2-1.3v1L458.3,270z"/>
			<path fill="#FFFFFF" d="M482.8,268.9c-1.4,1.4-3.3,2.2-5.6,2.2c-2.3,0-4.1-0.7-5.5-2.1c-1.4-1.4-2.2-3.3-2.2-5.6
				c0-2.3,0.7-4.1,2.1-5.5c1.4-1.4,3.3-2.2,5.6-2.2c2.3,0,4.1,0.7,5.6,2.1c1.4,1.4,2.2,3.3,2.2,5.6
				C485,265.6,484.3,267.5,482.8,268.9z M482.2,258.4c-1.3-1.3-2.9-1.9-5-1.9c-2,0-3.6,0.6-4.9,1.9c-1.3,1.3-1.9,2.9-1.9,4.9
				c0,2,0.6,3.6,1.9,4.9c1.3,1.3,2.9,1.9,4.9,1.9c2,0,3.7-0.6,5-1.9c1.3-1.3,1.9-2.9,1.9-5C484.1,261.3,483.5,259.7,482.2,258.4z"/>
			<path fill="#FFFFFF" d="M498.7,258.1v12.7h-0.8v-15.1l11.2,13.1v-13h0.9v15.2L498.7,258.1z"/>
			<path fill="#FFFFFF" d="M525.8,256.7v14.1H525v-14.1h-3.3v-0.9h7.5v0.9H525.8z"/>
			<path fill="#FFFFFF" d="M540.9,270.8v-15h7.2v0.9h-6.3v5.5h6.3v0.9h-6.3v6.9h6.3v0.9H540.9z"/>
			<path fill="#FFFFFF" d="M561.2,258.1v12.7h-0.8v-15.1l11.2,13.1v-13h0.9v15.2L561.2,258.1z"/>
			<path fill="#FFFFFF" d="M588.4,256.7v14.1h-0.9v-14.1h-3.3v-0.9h7.5v0.9H588.4z"/>
		</g>
	</g>
	<g id="captivating" class="letter-fade">
		<g>
			<path fill="#FFFFFF" d="M276.7,77.5c-0.8,0.6-1.8,0.9-3.2,1c-0.2,0-0.3,0-0.5,0c-0.2,0-0.4,0-0.6,0c-2.3,0-4.1-0.7-5.5-2.1
				c-1.4-1.4-2.2-3.3-2.2-5.6c0-2.3,0.7-4.1,2.1-5.5c1.4-1.4,3.3-2.2,5.6-2.2c1.3,0,2.5,0.2,3.5,0.6c0.6,0.2,1.2,0.6,1.8,1v1.1
				c-0.6-0.5-1.2-0.9-1.9-1.2c-1.1-0.4-2.2-0.7-3.3-0.7c-2,0-3.6,0.6-4.9,1.9c-1.3,1.3-1.9,2.9-1.9,4.9c0,2,0.6,3.6,1.9,4.9
				c1.3,1.3,2.9,1.9,4.9,1.9c1.2,0,2.3-0.2,3.3-0.7c0.5-0.3,1.2-0.7,2-1.3v1L276.7,77.5z"/>
			<path fill="#FFFFFF" d="M299.6,78.4l-1.7-4.5h-6.8l-1.7,4.5h-0.8l6-15.5l6,15.5H299.6z M294.5,65.1l-3.1,7.9h6.1L294.5,65.1z"/>
			<path fill="#FFFFFF" d="M318.8,69.8c-0.8,0.7-1.8,1-2.9,1h-2.8v7.5h-0.8v-15h3.7c1.1,0,2.1,0.3,2.9,1c0.8,0.7,1.2,1.6,1.2,2.7
				C320,68.2,319.6,69.2,318.8,69.8z M318.2,65c-0.6-0.5-1.3-0.7-2.3-0.7h-2.8V70h2.8c0.9,0,1.7-0.3,2.3-0.8
				c0.6-0.5,0.9-1.3,0.9-2.2C319.1,66.2,318.8,65.5,318.2,65z"/>
			<path fill="#FFFFFF" d="M335,64.2v14.1h-0.9V64.2h-3.3v-0.9h7.5v0.9H335z"/>
			<path fill="#FFFFFF" d="M350.1,78.4v-15h0.8v15H350.1z"/>
			<path fill="#FFFFFF" d="M367.7,78.6l-4.8-15.2h0.9l3.9,12.4l3.9-12.4h0.9L367.7,78.6z"/>
			<path fill="#FFFFFF" d="M392.1,78.4l-1.7-4.5h-6.8l-1.7,4.5H381l6-15.5l6,15.5H392.1z M387,65.1l-3.1,7.9h6.1L387,65.1z"/>
			<path fill="#FFFFFF" d="M406.6,64.2v14.1h-0.9V64.2h-3.3v-0.9h7.5v0.9H406.6z"/>
			<path fill="#FFFFFF" d="M421.7,78.4v-15h0.8v15H421.7z"/>
			<path fill="#FFFFFF" d="M435.7,65.6v12.7h-0.8V63.3l11.2,13.1v-13h0.9v15.2L435.7,65.6z"/>
			<path fill="#FFFFFF" d="M473.2,76.3c-1.4,1.5-3.4,2.3-5.7,2.3c-2.3,0-4.1-0.7-5.5-2.1c-1.4-1.4-2.2-3.3-2.2-5.6
				c0-2.2,0.7-4.1,2.2-5.5c1.5-1.5,3.3-2.2,5.5-2.2c2.7,0,4.8,1,6.3,3.1l-0.7,0.5c-1.3-1.8-3.2-2.8-5.6-2.8c-2,0-3.6,0.7-4.9,2
				c-1.3,1.3-2,2.9-2,4.9c0,2,0.6,3.6,1.9,4.9c1.3,1.3,3,1.9,4.9,1.9c2.1,0,3.8-0.7,5.1-2.1c1-1.1,1.5-2.3,1.7-3.6h-5v-0.9h5.9
				C475.2,73.2,474.6,74.9,473.2,76.3z"/>
		</g>
	</g>
	<g id="eye" class="letter-fade">
		<path fill="#FFFFFF" d="M385.5,37.2c0-0.1-1.2-1.9-3.7-3.6c-2.2-1.6-5.9-3.4-11.3-3.6c0,0-0.1,0-0.1,0v0c-0.1,0-0.2,0-0.2,0
			c0,0-0.1,0-0.1,0c0,0-0.1,0-0.1,0c-0.1,0-0.2,0-0.2,0v0c0,0-0.1,0-0.1,0c-5.4,0.2-9.1,2-11.3,3.6c-2.5,1.8-3.6,3.6-3.7,3.6
			l-0.2,0.3l0.2,0.3c0,0.1,1.2,1.9,3.7,3.6c2.2,1.6,5.9,3.4,11.3,3.6c0,0,0.1,0,0.1,0v0c0.1,0,0.2,0,0.2,0c0,0,0.1,0,0.1,0
			c0,0,0.1,0,0.1,0c0.1,0,0.2,0,0.2,0v0c0,0,0.1,0,0.1,0c5.4-0.2,9.1-2,11.3-3.6c2.5-1.8,3.6-3.6,3.7-3.6l0.2-0.3L385.5,37.2z
			 M376.5,37.5c0,3.4-2.7,6.2-6.1,6.4c-0.1,0-0.2,0-0.4,0c-0.1,0-0.2,0-0.4,0c-3.4-0.2-6.1-3-6.1-6.4c0-3.4,2.7-6.2,6.1-6.4
			c0.1,0,0.2,0,0.4,0c0.1,0,0.2,0,0.4,0C373.8,31.3,376.5,34.1,376.5,37.5z M358.9,40.6c-1.8-1.3-2.9-2.5-3.3-3.1
			c0.4-0.5,1.5-1.8,3.3-3.1c1.5-1,3.6-2.2,6.5-2.8c-1.8,1.4-2.9,3.5-2.9,5.9c0,2.4,1.1,4.6,2.9,5.9
			C362.5,42.8,360.3,41.6,358.9,40.6z M381.1,40.6c-1.5,1-3.6,2.2-6.5,2.8c1.8-1.4,2.9-3.5,2.9-5.9c0-2.4-1.1-4.6-2.9-5.9
			c2.9,0.7,5.1,1.8,6.5,2.8c1.8,1.3,2.9,2.5,3.3,3.1C384,38.1,382.9,39.3,381.1,40.6z"/>
		<path fill="#FFFFFF" d="M370,33.8c-2,0-3.7,1.6-3.7,3.7c0,2,1.6,3.7,3.7,3.7c2,0,3.7-1.6,3.7-3.7C373.7,35.5,372,33.8,370,33.8z
			 M370,40.1c-1.4,0-2.6-1.2-2.6-2.6c0-1.4,1.2-2.6,2.6-2.6c1.4,0,2.6,1.2,2.6,2.6C372.6,39,371.4,40.1,370,40.1z"/>
	</g>
</g>
</svg>
