<?xml version="1.0" encoding="utf-8"?>
<!-- Generator: Adobe Illustrator 18.1.1, SVG Export Plug-In . SVG Version: 6.00 Build 0)  -->
<!DOCTYPE svg PUBLIC "-//W3C//DTD SVG 1.1//EN" "http://www.w3.org/Graphics/SVG/1.1/DTD/svg11.dtd">
<svg version="1.1" id="Layer_2" xmlns="http://www.w3.org/2000/svg" xmlns:xlink="http://www.w3.org/1999/xlink" x="0px" y="0px"
	 viewBox="0 0 1409.7 335.3" enable-background="new 0 0 1409.7 335.3" xml:space="preserve">
<g>
	<path id="logo-eight" fill="none" stroke="#FFFFFF" stroke-width="6" stroke-linecap="round" stroke-linejoin="round" stroke-miterlimit="10" d="
		M37.2,189.9c44,13.7,106.3-3.9,136-39c-3.7-7.3-40.2,21.9-18.8,39.1c28.2,22.7,97.9-5.8,133.4-39.1c-7.6,7.2-10.6,28.1,1.1,34.3
		s35.5,3.2,48.4,0.2c45.4-10.4,76.2-21.9,113.8-38.3c-12.2,3.9-20.1,12.5-20.1,23.9c0,19,24.8,10.4,30.9,0.9
		c-12.5,56.7-40.5,146.4-54.6,147.3c-16.8,1.1,37.9-70.4,71.6-99.4c37.9-32.6,66.3-43.3,105.4-68.3c43.7-28,84.1-151.3,64.3-121.7
		c-11.4,17-38.4,94-78.2,164.8c21.3-20.5,64.7-44.5,64.7-44.5s0.5,14.8,20,29.8c32.2,24.8,72.3,8.2,109.8-10.2
		c37.5-18.4,82.3-54.9,88.7-96.9c4-26.6-35.8,65.8-50.6,94.8c-5.9,11.6-10,20.5-12.7,33.3c-2.5,11.5,17.2,27.7,20,17.6
		c2.8-10.2-13.8-34.2-25.8-45.7c45.1-1,94.9-9,136.2-27.2"/>
	<path id="logo-i-dot" fill="none" stroke="#FFFFFF" stroke-width="6" stroke-linecap="round" stroke-linejoin="round" stroke-miterlimit="10" d="
		M297.6,97.9c0,5.2,48.3,1.4,68.1-2.6"/>
</g>
<g id="logo-fold">
	<g>
		
			<line fill="none" stroke="#FFFFFF" stroke-width="4" stroke-linecap="square" stroke-miterlimit="10" x1="963" y1="123.3" x2="897.2" y2="123.3"/>
		<polyline fill="none" stroke="#FFFFFF" stroke-width="4" stroke-linecap="square" stroke-miterlimit="10" points="897.2,193.8 
			897.2,52.1 982.8,52.1 		"/>
	</g>
	
		<circle fill="none" stroke="#FFFFFF" stroke-width="4" stroke-linecap="square" stroke-miterlimit="10" cx="1062.4" cy="122.3" r="71"/>
	<path fill="none" stroke="#FFFFFF" stroke-width="4" stroke-linecap="square" stroke-miterlimit="10" d="M1306.4,193
		c39,0,70.6-31.3,70.6-70.3s-31.6-70.6-70.6-70.6H1264V193H1306.4z"/>
	<polyline fill="none" stroke="#FFFFFF" stroke-width="4" stroke-linecap="square" stroke-miterlimit="10" points="1159.2,52.1 
		1159.2,193.2 1237.4,193.2 	"/>
</g>
</svg>
