<?xml version="1.0" encoding="utf-8"?>
<!-- Generator: Adobe Illustrator 18.1.1, SVG Export Plug-In . SVG Version: 6.00 Build 0)  -->
<!DOCTYPE svg PUBLIC "-//W3C//DTD SVG 1.1//EN" "http://www.w3.org/Graphics/SVG/1.1/DTD/svg11.dtd">
<svg version="1.1" id="Layer_2" xmlns="http://www.w3.org/2000/svg" xmlns:xlink="http://www.w3.org/1999/xlink" x="0px" y="0px"
	 viewBox="0 165 960 230" enable-background="new 0 165 960 230" xml:space="preserve">
<g>
	
		<path id="logo-eight" fill="none" stroke="#FFFFFF" stroke-width="7" stroke-linecap="round" stroke-linejoin="round" stroke-miterlimit="10" d="
		M25.3,295.2c30,9.3,72.4-2.7,92.6-26.6c-2.5-5-27.4,14.9-12.8,26.6c19.2,15.5,66.7-3.9,90.8-26.6c-5.2,4.9-7.2,19.1,0.7,23.4
		c8,4.2,24.2,2.2,33,0.1c30.9-7.1,51.9-14.9,77.5-26.1c-8.3,2.7-13.7,8.5-13.7,16.3c0,12.9,16.9,7.1,21,0.6
		c-8.5,38.6-27.6,99.7-37.2,100.3c-11.4,0.7,25.8-47.9,48.8-67.7c25.8-22.2,45.2-29.5,71.8-46.5c29.8-19.1,57.3-103,43.8-82.9
		c-7.8,11.6-26.2,64-53.3,112.2c14.5-14,44.1-30.3,44.1-30.3s0.3,10.1,13.6,20.3c21.9,16.9,49.2,5.6,74.8-6.9
		c25.5-12.5,56-37.4,60.4-66c2.7-18.1-24.4,44.8-34.5,64.6c-4,7.9-6.8,14-8.6,22.7c-1.7,7.8,11.7,18.9,13.6,12
		c1.9-6.9-9.4-23.3-17.6-31.1c30.7-0.7,64.6-6.1,92.8-18.5"/>
	<path fill="none" stroke="#FFFFFF" stroke-width="7" stroke-linecap="round" stroke-linejoin="round" stroke-miterlimit="10" d="
		M202.7,232.5c0,3.5,32.9,1,46.4-1.8"/>
</g>
<g id="logo-fold">
	<g>
		
			<line fill="none" stroke="#FFFFFF" stroke-width="5" stroke-linecap="square" stroke-miterlimit="10" x1="655.8" y1="249.8" x2="611" y2="249.8"/>
		<polyline fill="none" stroke="#FFFFFF" stroke-width="5" stroke-linecap="square" stroke-miterlimit="10" points="611,297.8 
			611,201.3 669.3,201.3 		"/>
	</g>
	
		<circle fill="none" stroke="#FFFFFF" stroke-width="5" stroke-linecap="square" stroke-miterlimit="10" cx="723.5" cy="249.1" r="48.4"/>
	<path fill="none" stroke="#FFFFFF" stroke-width="5" stroke-linecap="square" stroke-miterlimit="10" d="M889.7,297.3
		c26.6,0,48.1-21.3,48.1-47.9s-21.5-48.1-48.1-48.1h-28.9v96H889.7z"/>
	<polyline fill="none" stroke="#FFFFFF" stroke-width="5" stroke-linecap="square" stroke-miterlimit="10" points="789.4,201.3 
		789.4,297.4 842.7,297.4 	"/>
</g>
</svg>
