<?xml version="1.0" encoding="utf-8"?>
<!-- Generator: Adobe Illustrator 18.1.1, SVG Export Plug-In . SVG Version: 6.00 Build 0)  -->
<!DOCTYPE svg PUBLIC "-//W3C//DTD SVG 1.1//EN" "http://www.w3.org/Graphics/SVG/1.1/DTD/svg11.dtd">
<svg version="1.1" id="Perception" xmlns="http://www.w3.org/2000/svg" xmlns:xlink="http://www.w3.org/1999/xlink" x="0px" y="0px"
	 viewBox="0 0 740 280" enable-background="new 0 0 740 280" xml:space="preserve">
<g>
	<defs>
		<rect id="SVGID_1_" x="-206" y="-157" width="1152" height="648"/>
	</defs>
	<clipPath id="SVGID_2_">
		<use xlink:href="#SVGID_1_"  overflow="visible"/>
	</clipPath>
</g>
<g>
	<g id="perception">
		<g>
			<path class="letter-flip" style="animation-delay:100ms" fill="#FFFFFF" d="M31.2,193.5c-3.6,0.5-5.5,0.7-9.1,1.2c0,17.8-0.1,35.5-0.1,53.3c-3.7,0.8-5.5,1.3-9.2,2.1
				c0-18,0-36.1,0-54.1c-3.3,0.5-5,0.7-8.3,1.2c0-3.5,0-5.3,0-8.8c3.3-0.4,5-0.6,8.4-1.1c0-25.2,0-50.4,0.1-75.6
				c7.5,0,11.3,0,18.8,0c6.2,0,10.5,1.3,12.9,3.8c2.4,2.5,3.6,6,3.6,10.6c-0.1,17.2-0.1,34.4-0.2,51.6c0,4-1.4,7.4-4.2,10.3
				C41,190.9,36.9,192.7,31.2,193.5z M38.9,126.2c0-2.3-0.6-3.9-2-4.8c-1.3-0.9-3-1.3-5.2-1.3c-3.8,0.1-5.7,0.1-9.5,0.1
				c0,22-0.1,43.9-0.1,65.9c3.6-0.4,5.4-0.7,9.1-1.1c2.3-0.3,4.1-0.9,5.4-2c1.4-1,2.1-2.5,2.1-4.4C38.8,161.2,38.8,143.7,38.9,126.2
				z"/>
			<path class="letter-flip" style="animation-delay:200ms" fill="#FFFFFF" d="M93.9,233.5c0.1-15.9,0.2-31.8,0.3-47.6c-3.4,0.4-5.1,0.6-8.6,0.9c0-3.1,0-4.6,0-7.7
				c3.4-0.3,5.1-0.5,8.6-0.8c0.2-22.2,0.3-44.3,0.5-66.5c10.9,0,21.9,0,32.8,0c0,2.9,0,4.4-0.1,7.3c-9.4,0.1-14.1,0.1-23.5,0.3
				c-0.1,19.4-0.3,38.7-0.4,58.1c9.7-0.9,14.5-1.3,24.2-2.2c0,2.9,0,4.4-0.1,7.3c-9.7,0.9-14.5,1.4-24.2,2.4
				c-0.1,13.2-0.2,26.3-0.3,39.5c9.6-1.6,14.5-2.3,24.1-3.7c0,2.9,0,4.4-0.1,7.3C116.1,229.7,105,231.5,93.9,233.5z"/>
			<path class="letter-flip" style="animation-delay:300ms" fill="#FFFFFF" d="M201.2,206.1c0.1-9.7,0.1-14.5,0.2-24.2c0-1.4-0.5-2.6-1.6-3.7c-1.1-1-2.8-1.5-5-1.3
				c-4.1,0.3-6.1,0.4-10.2,0.7c-0.1,14.3-0.3,28.5-0.4,42.8c-3.7,0.4-5.6,0.7-9.3,1.1c0.1-14.4,0.3-28.8,0.4-43.2
				c-3.2,0.2-4.8,0.4-8.1,0.6c0-2.8,0-4.1,0.1-6.9c3.2-0.2,4.8-0.3,8.1-0.6c0.2-19.9,0.4-39.9,0.5-59.8c7.9,0,11.9,0,19.8,0
				c4.3,0,8,1.1,11,3.3c3,2.2,4.5,5,4.5,8.3c-0.1,13.9-0.2,27.9-0.4,41.8c0,3-3.8,7.3-3.8,7.7c0,0.3,2.1,1.9,2.7,3.3
				c0.6,1.4,0.9,3.1,0.9,5.2c-0.1,9.6-0.1,14.4-0.2,23.9c0,2.3,1,3.6,3.1,3.9c2.1,0.3,4.3,0.4,6.5,0.3c0,2.8,0,4.2-0.1,7.1
				c-5.8,0.6-10.3,0.2-13.8-1.1C202.9,214.1,201.2,211,201.2,206.1z M202,123.3c0-1.3-0.6-2.5-1.7-3.5c-1.1-1-2.6-1.5-4.5-1.4
				c-4.3,0-6.4,0-10.7,0.1c-0.2,17.5-0.3,34.9-0.5,52.4c4-0.3,6-0.4,10-0.6c4.6-0.3,6.9-1.8,6.9-4.7
				C201.7,151.5,201.8,137.4,202,123.3z"/>
			<path class="letter-flip" style="animation-delay:400ms" fill="#FFFFFF" d="M276.5,212c-5.2,0.3-9.3-0.3-12.4-1.7c-3.1-1.5-4.6-4.3-4.6-8.5c0.2-26.3,0.4-52.6,0.5-79
				c0-3.5,1.7-6.3,5.1-8.2c3.3-1.9,7.3-2.9,11.9-2.9c4.6,0,8.6,1.1,12.1,3.2c3.5,2.1,5.2,4.7,5.2,7.7c0,4.8,0,7.1-0.1,11.9
				c-3.5,0-5.3,0.1-8.8,0.1c0-4.8,0-7.2,0.1-12c0-1.3-0.8-2.4-2.4-3.4c-1.6-0.9-3.7-1.4-6.1-1.4c-3,0-5.1,0.5-6.1,1.4
				c-1,0.9-1.5,2.1-1.5,3.4c-0.2,26.2-0.3,52.4-0.5,78.6c0,1.7,0.8,2.9,2.3,3.7c1.6,0.8,3.4,1.1,5.5,1c2.2-0.1,4.2-0.7,6-1.8
				c1.8-1,2.7-2.4,2.7-4.1c0-4.6,0-6.9,0.1-11.6c3.7-0.2,5.6-0.2,9.3-0.4c0,4.7,0,7-0.1,11.6c0,3-1.9,5.7-5.5,8.1
				C285.6,210.4,281.3,211.8,276.5,212z"/>
			<path class="letter-flip" style="animation-delay:500ms" fill="#FFFFFF" d="M342.5,209.2c0-12.7,0-25.5,0.1-38.2c-3.5,0-5.2,0.1-8.6,0.1c0-2.4,0-3.7,0-6.1c3.5,0,5.2-0.1,8.6-0.1
				c0-17.8,0.1-35.5,0.1-53.3c10.9,0,21.9,0,32.8,0c0,2.4,0,3.7,0,6.1c-9.4,0-14.1,0-23.5,0c0,15.7,0,31.4-0.1,47.1
				c9.7-0.1,14.6-0.1,24.3,0c0,2.4,0,3.7,0,6.1c-9.7,0-14.6,0-24.3,0.1c0,10.7,0,21.4,0,32c9.7-0.1,14.6-0.1,24.4-0.1
				c0,2.4,0,3.6,0,6.1C365,209,353.8,209.1,342.5,209.2z"/>
			<path class="letter-flip" style="animation-delay:600ms" fill="#FFFFFF" d="M443.1,172c-3.7-0.1-5.5-0.2-9.2-0.2c0.1,12.9,0.1,25.7,0.2,38.6c-3.7-0.2-5.6-0.2-9.4-0.4
				c0-12.8-0.1-25.6-0.1-38.5c-3.4-0.1-5.1-0.1-8.5-0.2c0-2.5,0-3.7,0-6.1c3.4,0.1,5.1,0.1,8.4,0.1c-0.1-17.9-0.1-35.8-0.2-53.7
				c7.5,0,11.3,0,18.8,0c6.2,0,10.5,1,12.9,2.9c2.4,1.9,3.6,4.6,3.6,8.1c0.1,13.2,0.2,26.3,0.2,39.5c0,3.1-1.4,5.5-4.1,7.4
				C453,171.3,448.7,172.1,443.1,172z M450.3,122.5c0-1.7-0.7-3-2-3.6c-1.3-0.7-3-1-5.2-1c-3.8,0-5.7,0-9.5,0
				c0.1,15.9,0.1,31.8,0.2,47.7c3.7,0.1,5.5,0.1,9.2,0.2c2.3,0.1,4.1-0.2,5.5-0.8c1.4-0.6,2.1-1.6,2-3.1
				C450.4,148.7,450.4,135.6,450.3,122.5z"/>
			<path class="letter-flip" style="animation-delay:700ms" fill="#FFFFFF" d="M521.2,118.2c0.3,32.7,0.5,65.4,0.8,98.1c-3.9-0.4-5.8-0.6-9.7-0.9c-0.3-32.4-0.5-64.9-0.8-97.3
				c-5.2,0-7.8,0-13-0.1c0-2.6,0-3.8,0-6.4c11.7,0,23.4,0,35.1,0c0,2.6,0,4,0.1,6.6C528.6,118.3,526.1,118.3,521.2,118.2z"/>
			<path class="letter-flip" style="animation-delay:800ms" fill="#FFFFFF" d="M574.9,222.4c-0.3-36.9-0.6-73.8-1-110.7c3.9,0,5.8,0,9.6,0c0.3,37.3,0.6,74.7,1,112
				C580.7,223.2,578.7,222.9,574.9,222.4z"/>
			<path class="letter-flip" style="animation-delay:900ms" fill="#FFFFFF" d="M642.3,232.8c-5.5-1-9.8-2.7-13.1-5.2c-3.3-2.5-4.9-6.3-5-11.3c-0.2-30.6-0.5-61.3-0.7-91.9
				c0-3.6,1.7-6.7,5.3-9.2c3.5-2.5,7.8-3.8,12.9-3.8c4.9,0,9.1,1.3,12.5,3.9c3.4,2.6,5.1,5.9,5.1,9.8c0.2,32.3,0.4,64.6,0.6,96.9
				c0,5.4-1.6,8.8-4.8,10.1C651.8,233.5,647.5,233.7,642.3,232.8z M649.9,124.9c0-1.7-0.9-3.2-2.5-4.2c-1.7-1.1-3.6-1.6-5.7-1.7
				c-2.2,0-4.3,0.5-6,1.5c-1.8,1-2.6,2.3-2.6,3.9c0.2,31.1,0.5,62.2,0.7,93.3c0,4.3,2.9,6.9,8.5,7.8c5.5,0.9,8.3-0.8,8.3-5
				C650.4,188.6,650.1,156.8,649.9,124.9z"/>
			<path class="letter-flip" style="animation-delay:1000ms" fill="#FFFFFF" d="M726.5,249.9c-5.5-29-11.2-58-17.1-87c0,27.7,0,55.4,0.1,83.1c-3.8-0.8-5.7-1.3-9.5-2.1
				c-0.1-44.1-0.3-88.2-0.4-132.3c3.6,0,5.4,0,8.9,0c6.1,29.6,12,59.1,17.8,88.8c0-29.6-0.1-59.2-0.1-88.8c3.7,0,5.6,0,9.3,0
				c0,46.7,0,93.4,0,140.1C731.9,251.1,730.1,250.7,726.5,249.9z"/>
		</g>
	</g>
	<g id="engaged" class="letter-fade">
		<path fill="#FFFFFF" d="M237,269c-1.4,1.4-3.3,2.2-5.6,2.2c-2.3,0-4.1-0.7-5.5-2.1c-1.4-1.4-2.2-3.3-2.2-5.6
			c0-2.3,0.7-4.1,2.1-5.5c1.4-1.4,3.3-2.2,5.6-2.2c2.3,0,4.1,0.7,5.6,2.1c1.4,1.4,2.2,3.3,2.2,5.6C239.2,265.7,238.5,267.6,237,269z
			 M236.4,258.5c-1.3-1.3-2.9-1.9-5-1.9c-2,0-3.6,0.6-4.9,1.9c-1.3,1.3-1.9,2.9-1.9,4.9c0,2,0.6,3.6,1.9,4.9
			c1.3,1.3,2.9,1.9,4.9,1.9c2,0,3.7-0.6,5-1.9c1.3-1.3,1.9-2.9,1.9-5C238.4,261.5,237.7,259.8,236.4,258.5z"/>
		<path fill="#FFFFFF" d="M252.9,263.2v7.8h-0.8v-15h6.5v0.9h-5.7v5.5h5.7v0.9H252.9z"/>
		<path fill="#FFFFFF" d="M291.1,256.8V271h-0.9v-14.1h-3.3V256h7.5v0.9H291.1z"/>
		<path fill="#FFFFFF" d="M315.2,271v-7.8H307v7.8h-0.8v-15h0.8v6.3h8.3V256h0.9v15H315.2z"/>
		<path fill="#FFFFFF" d="M328.4,271v-15h7.2v0.9h-6.3v5.5h6.3v0.9h-6.3v6.9h6.3v0.9H328.4z"/>
		<path fill="#FFFFFF" d="M364.7,271v-15h7.2v0.9h-6.3v5.5h6.3v0.9h-6.3v6.9h6.3v0.9H364.7z"/>
		<path fill="#FFFFFF" d="M385,258.2V271h-0.8v-15.1l11.2,13.1v-13h0.9v15.2L385,258.2z"/>
		<path fill="#FFFFFF" d="M422.6,268.9c-1.4,1.5-3.4,2.3-5.7,2.3c-2.3,0-4.1-0.7-5.5-2.1c-1.4-1.4-2.2-3.3-2.2-5.6
			c0-2.2,0.7-4.1,2.2-5.5c1.5-1.5,3.3-2.2,5.5-2.2c2.7,0,4.8,1,6.3,3.1l-0.7,0.5c-1.3-1.8-3.2-2.8-5.7-2.8c-2,0-3.6,0.7-4.9,2
			c-1.3,1.3-2,2.9-2,4.9c0,2,0.6,3.6,1.9,4.9c1.3,1.3,3,1.9,4.9,1.9c2.1,0,3.8-0.7,5.1-2.1c1-1.1,1.5-2.3,1.7-3.6h-5v-0.9h5.9
			C424.6,265.8,423.9,267.5,422.6,268.9z"/>
		<path fill="#FFFFFF" d="M445.7,271l-1.7-4.5h-6.8l-1.7,4.5h-0.8l6-15.5l6,15.5H445.7z M440.6,257.7l-3.1,7.9h6.1L440.6,257.7z"/>
		<path fill="#FFFFFF" d="M470.8,268.9c-1.4,1.5-3.4,2.3-5.7,2.3c-2.3,0-4.1-0.7-5.5-2.1c-1.4-1.4-2.2-3.3-2.2-5.6
			c0-2.2,0.7-4.1,2.2-5.5c1.5-1.5,3.3-2.2,5.5-2.2c2.7,0,4.8,1,6.3,3.1l-0.7,0.5c-1.3-1.8-3.2-2.8-5.7-2.8c-2,0-3.6,0.7-4.9,2
			c-1.3,1.3-2,2.9-2,4.9c0,2,0.6,3.6,1.9,4.9c1.3,1.3,3,1.9,4.9,1.9c2.1,0,3.8-0.7,5.1-2.1c1-1.1,1.5-2.3,1.7-3.6h-5v-0.9h5.9
			C472.8,265.8,472.1,267.5,470.8,268.9z"/>
		<path fill="#FFFFFF" d="M485,271v-15h7.2v0.9h-6.3v5.5h6.3v0.9h-6.3v6.9h6.3v0.9H485z"/>
		<path fill="#FFFFFF" d="M514.5,268.7c-1.3,1.5-2.9,2.3-4.9,2.3h-5v-15h5c2,0,3.7,0.8,4.9,2.3c1.2,1.4,1.8,3.1,1.8,5.2
			C516.2,265.5,515.6,267.3,514.5,268.7z M513.8,258.8c-1.1-1.3-2.5-2-4.3-2h-4.2v13.3h4.2c1.5,0,2.9-0.6,4-1.7
			c1.2-1.2,1.8-2.9,1.8-4.9C515.4,261.6,514.8,260.1,513.8,258.8z"/>
	</g>
	<g id="orienting" class="letter-fade">
		<path fill="#FFFFFF" d="M294.1,76.9c-1.4,1.4-3.3,2.2-5.6,2.2c-2.3,0-4.1-0.7-5.5-2.1c-1.4-1.4-2.2-3.3-2.2-5.6
			c0-2.3,0.7-4.1,2.1-5.5c1.4-1.4,3.3-2.2,5.6-2.2c2.3,0,4.1,0.7,5.6,2.1c1.4,1.4,2.2,3.3,2.2,5.6C296.3,73.7,295.6,75.5,294.1,76.9
			z M293.5,66.4c-1.3-1.3-2.9-1.9-5-1.9c-2,0-3.6,0.6-4.9,1.9c-1.3,1.3-1.9,2.9-1.9,4.9c0,2,0.6,3.6,1.9,4.9
			c1.3,1.3,2.9,1.9,4.9,1.9c2,0,3.7-0.6,5-1.9c1.3-1.3,1.9-2.9,1.9-5C295.4,69.4,294.8,67.7,293.5,66.4z"/>
		<path fill="#FFFFFF" d="M316.4,78.9l-4.8-7.5H310v7.5h-0.8v-15h3.5c0.6,0,1.1,0.1,1.6,0.2c0.5,0.2,0.9,0.4,1.3,0.7
			c0.4,0.3,0.7,0.7,0.9,1.2c0.2,0.5,0.3,1,0.3,1.6c0,0.7-0.1,1.2-0.3,1.7c-0.2,0.5-0.5,0.9-0.9,1.2c-0.4,0.3-0.8,0.5-1.3,0.7
			c-0.5,0.1-1.1,0.2-1.7,0.2l4.8,7.5H316.4z M315.6,66.3c-0.2-0.4-0.4-0.7-0.7-0.9c-0.3-0.2-0.6-0.4-1-0.5c-0.4-0.1-0.8-0.2-1.3-0.2
			H310v5.8h2.8c0.9,0,1.6-0.3,2.2-0.8c0.6-0.5,0.8-1.2,0.8-2.2C315.9,67.1,315.8,66.7,315.6,66.3z"/>
		<path fill="#FFFFFF" d="M329.9,78.9v-15h0.8v15H329.9z"/>
		<path fill="#FFFFFF" d="M343,78.9v-15h7.2v0.9h-6.3v5.5h6.3v0.9h-6.3V78h6.3v0.9H343z"/>
		<path fill="#FFFFFF" d="M363.4,66.2v12.7h-0.8V63.8l11.2,13.1v-13h0.9v15.2L363.4,66.2z"/>
		<path fill="#FFFFFF" d="M390.5,64.7v14.1h-0.9V64.7h-3.3v-0.9h7.5v0.9H390.5z"/>
		<path fill="#FFFFFF" d="M405.6,78.9v-15h0.8v15H405.6z"/>
		<path fill="#FFFFFF" d="M419.6,66.2v12.7h-0.8V63.8l11.2,13.1v-13h0.9v15.2L419.6,66.2z"/>
		<path fill="#FFFFFF" d="M457.1,76.8c-1.4,1.5-3.4,2.3-5.7,2.3c-2.3,0-4.1-0.7-5.5-2.1c-1.4-1.4-2.2-3.3-2.2-5.6
			c0-2.2,0.7-4.1,2.2-5.5c1.5-1.5,3.3-2.2,5.5-2.2c2.7,0,4.8,1,6.3,3.1l-0.7,0.5c-1.3-1.8-3.2-2.8-5.6-2.8c-2,0-3.6,0.7-4.9,2
			c-1.3,1.3-2,2.9-2,4.9c0,2,0.6,3.6,1.9,4.9c1.3,1.3,3,1.9,4.9,1.9c2.1,0,3.8-0.7,5.1-2.1c1-1.1,1.5-2.3,1.7-3.6h-5v-0.9h5.9
			C459.1,73.7,458.5,75.4,457.1,76.8z"/>
	</g>
	<g id="rocket" class="letter-fade">
		<g id="rocket-legs">
			<g>
				<path id="rocket-leg-1" fill="none" stroke="#FFFFFF" stroke-miterlimit="10" d="M372.9,48.5c-0.6-1-1-2.6-1.2-4.3c-0.8-7.8-0.8-15.5-0.8-23.3"/>
				<path fill="none" stroke="#FFFFFF" stroke-miterlimit="10" d="M378.7,48.5c-1.1-0.3-1.8-1.2-2.4-2.2c-0.9-1.4-1.5-2.9-1.9-4.5
					c-0.8-2.7-1.2-5.5-1.4-8.3c-0.2-2.5-0.3-5.1-0.3-7.6c0-1.7,0-3.3,0-5"/>
				<path fill="none" stroke="#FFFFFF" stroke-miterlimit="10" d="M384.5,48.5c-4-0.8-6.4-4.5-7.9-8.1c-2.5-6.2-2-13-2.1-19.5"/>
				<path fill="none" stroke="#FFFFFF" stroke-miterlimit="10" d="M390.3,48.5c-0.4,0-0.9-0.1-1.3-0.2c-1.1-0.3-2.2-0.7-3.2-1.2
					c-1.5-0.8-2.8-1.8-3.9-3c-1.5-1.6-2.7-3.5-3.5-5.5c-1.2-2.8-1.7-5.8-2-8.9c-0.1-1.6-0.1-3.2-0.1-4.8c0-1.3,0-2.6,0-3.9"/>
			
				<path fill="none" stroke="#FFFFFF" stroke-miterlimit="10" d="M367.1,48.5c0.6-1,1-2.6,1.2-4.3c0.8-7.8,0.8-15.5,0.8-23.3"/>
				<path fill="none" stroke="#FFFFFF" stroke-miterlimit="10" d="M361.3,48.5c1.1-0.3,1.8-1.2,2.4-2.2c0.9-1.4,1.5-2.9,1.9-4.5
					c0.8-2.7,1.2-5.5,1.4-8.3c0.2-2.5,0.3-5.1,0.3-7.6c0-1.7,0-3.3,0-5"/>
				<path fill="none" stroke="#FFFFFF" stroke-miterlimit="10" d="M355.5,48.5c4-0.8,6.4-4.5,7.9-8.1c2.5-6.2,2-13,2.1-19.5"/>
				<path fill="none" stroke="#FFFFFF" stroke-miterlimit="10" d="M349.7,48.5c0.4,0,0.9-0.1,1.3-0.2c1.1-0.3,2.2-0.7,3.2-1.2
					c1.5-0.8,2.8-1.8,3.9-3c1.5-1.6,2.7-3.5,3.5-5.5c1.2-2.8,1.7-5.8,2-8.9c0.1-1.6,0.1-3.2,0.1-4.8c0-1.3,0-2.6,0-3.9"/>
			</g>
		</g>
		<polygon id="rocket-head" fill="none" stroke="#FFFFFF" stroke-miterlimit="10" points="370.1,8.3 377.3,14.5 384.5,20.8 
			370.1,20.8 362.3,20.8 355.7,20.8 362.9,14.5 	"/>
	</g>
</g>
</svg>
