<?xml version="1.0" encoding="utf-8"?>
<!-- Generator: Adobe Illustrator 18.0.0, SVG Export Plug-In . SVG Version: 6.00 Build 0)  -->
<!DOCTYPE svg PUBLIC "-//W3C//DTD SVG 1.1//EN" "http://www.w3.org/Graphics/SVG/1.1/DTD/svg11.dtd">
<svg version="1.1" id="Perception" xmlns="http://www.w3.org/2000/svg" xmlns:xlink="http://www.w3.org/1999/xlink" x="0px" y="0px"
	 viewBox="340 1.5 60 50" enable-background="new 340 1.5 60 50" xml:space="preserve">
<g>
	<g id="rocket">
		<g id="rocket-legs">
			<g>
				<path id="rocket-leg-1" fill="none" stroke="#FFFFFF" stroke-miterlimit="10" d="M372.4,44.9c-0.5-0.8-0.8-2.1-1-3.5
					c-0.7-6.4-0.7-12.7-0.7-19.1"/>
				<path fill="none" stroke="#FFFFFF" stroke-miterlimit="10" d="M377.1,44.9c-0.9-0.2-1.5-1-2-1.8c-0.7-1.1-1.2-2.4-1.6-3.7
					c-0.7-2.2-1-4.5-1.1-6.8c-0.2-2-0.2-4.2-0.2-6.2c0-1.4,0-2.7,0-4.1"/>
				<path fill="none" stroke="#FFFFFF" stroke-miterlimit="10" d="M381.9,44.9c-3.3-0.7-5.2-3.7-6.5-6.6c-2-5.1-1.6-10.7-1.7-16"/>
				<path fill="none" stroke="#FFFFFF" stroke-miterlimit="10" d="M386.6,44.9c-0.3,0-0.7-0.1-1.1-0.2c-0.9-0.2-1.8-0.6-2.6-1
					c-1.2-0.7-2.3-1.5-3.2-2.5c-1.2-1.3-2.2-2.9-2.9-4.5c-1-2.3-1.4-4.8-1.6-7.3c-0.1-1.3-0.1-2.6-0.1-3.9c0-1.1,0-2.1,0-3.2"/>
				<path fill="none" stroke="#FFFFFF" stroke-miterlimit="10" d="M367.6,44.9c0.5-0.8,0.8-2.1,1-3.5c0.7-6.4,0.7-12.7,0.7-19.1"/>
				<path fill="none" stroke="#FFFFFF" stroke-miterlimit="10" d="M362.9,44.9c0.9-0.2,1.5-1,2-1.8c0.7-1.1,1.2-2.4,1.6-3.7
					c0.7-2.2,1-4.5,1.1-6.8c0.2-2,0.2-4.2,0.2-6.2c0-1.4,0-2.7,0-4.1"/>
				<path fill="none" stroke="#FFFFFF" stroke-miterlimit="10" d="M358.1,44.9c3.3-0.7,5.2-3.7,6.5-6.6c2-5.1,1.6-10.7,1.7-16"/>
				<path fill="none" stroke="#FFFFFF" stroke-miterlimit="10" d="M353.4,44.9c0.3,0,0.7-0.1,1.1-0.2c0.9-0.2,1.8-0.6,2.6-1
					c1.2-0.7,2.3-1.5,3.2-2.5c1.2-1.3,2.2-2.9,2.9-4.5c1-2.3,1.4-4.8,1.6-7.3c0.1-1.3,0.1-2.6,0.1-3.9c0-1.1,0-2.1,0-3.2"/>
			</g>
		</g>
		<polygon id="rocket-head" fill="none" stroke="#FFFFFF" stroke-miterlimit="10" points="370.1,11.9 376,17 381.9,22.2 370.1,22.2 
			363.7,22.2 358.3,22.2 364.2,17 		"/>
	</g>
</g>
</svg>
