<?xml version="1.0" encoding="utf-8"?>
<!-- Generator: Adobe Illustrator 18.1.1, SVG Export Plug-In . SVG Version: 6.00 Build 0)  -->
<!DOCTYPE svg PUBLIC "-//W3C//DTD SVG 1.1//EN" "http://www.w3.org/Graphics/SVG/1.1/DTD/svg11.dtd">
<svg version="1.1" id="Layer_1" xmlns="http://www.w3.org/2000/svg" xmlns:xlink="http://www.w3.org/1999/xlink" x="0px" y="0px"
	 viewBox="0 0 35.7 35.7" enable-background="new 0 0 35.7 35.7" xml:space="preserve">
<path fill="#FFFFFF" d="M31.6,31.9c-0.1,0-2.4-0.2-4.7-2.1c-1.4-1.1-2.5-2.7-3.3-4.5c-1-2.3-1.5-5.2-1.6-8.6v-3h6.4c0,0,0,0,0,0
	c0.1,0,0.2-0.1,0.2-0.2c0-0.1,0-0.1-0.1-0.2l-11-9.5c-0.1-0.1-0.2-0.1-0.3,0l-11,9.6c-0.1,0.1-0.1,0.1-0.1,0.2s0.1,0.1,0.2,0.1h6.4
	v3c0,3.4-0.5,6.2-1.6,8.6c-0.8,1.9-1.9,3.4-3.3,4.5c-2.3,1.9-4.6,2.1-4.7,2.1c-0.1,0-0.2,0.1-0.2,0.2l0,0.5c0,0.1,0.1,0.2,0.2,0.2
	c0.1,0,2.7-0.2,5.2-2.3c1.5-1.2,2.7-2.9,3.6-4.9c1.1-2.5,1.6-5.5,1.6-9v-3H14v3c0,4.2-0.6,9.9-3.5,13.2c-1.6,1.9-3.3,2.1-3.3,2.1
	c-0.1,0-0.1,0-0.1,0.1c0,0-0.1,0.1,0,0.1l0.1,0.5c0,0.1,0.1,0.2,0.2,0.2c0.1,0,2-0.2,3.9-2.4c1.1-1.2,1.9-2.9,2.5-4.9
	c0.8-2.5,1.1-5.5,1.2-8.9v-3h0.3v3c0,4.2-0.4,9.9-2.1,13.2c-0.8,1.6-1.6,2-1.8,2.1c0,0,0,0,0,0c0,0-0.1,0-0.1,0.1c0,0-0.1,0.1,0,0.2
	l0.1,0.5c0,0.1,0,0.1,0.1,0.1c0,0,0.1,0,0.1,0c0.5-0.1,4.6-1.2,4.7-16.2v-3h0.3v3c0,13.8-1.2,15.3-1.3,15.4c-0.1,0.1-0.1,0.2,0,0.2
	c0,0,0,0,0,0l0.2,0.4c0,0,0.1,0.1,0.1,0.1c0.1,0,0.1,0,0.2,0c0.1-0.1,0.6-0.3,1-2.6c0.5-2.7,0.7-7.4,0.7-13.6v-3h0.3v3
	c0,6.2,0.3,10.9,0.7,13.6c0.4,2.3,0.8,2.5,1,2.6c0,0,0.1,0,0.2,0c0.1,0,0.1-0.1,0.1-0.1l0.2-0.3c0.1,0,0.1-0.1,0.1-0.2
	c0-0.1,0-0.1-0.1-0.2c-0.2-0.2-1.2-2.3-1.2-15.4v-3h0.3v3c0,15,4.2,16.1,4.7,16.2c0.1,0,0.1,0,0.1,0c0,0,0.1-0.1,0.1-0.1l0.1-0.5
	c0-0.1-0.1-0.2-0.2-0.2c0,0-0.9-0.2-1.8-2c-1.7-3.3-2.1-9.1-2.1-13.3v-3h0.3v3c0,3.5,0.4,6.5,1.2,8.9c0.6,2,1.5,3.6,2.5,4.9
	c1.9,2.2,3.8,2.4,3.8,2.4c0.1,0,0.2-0.1,0.2-0.2l0.1-0.5c0-0.1-0.1-0.2-0.2-0.2c0,0-1.6-0.2-3.3-2.1c-2.8-3.3-3.5-9-3.5-13.2v-3h0.3
	v3c0,3.5,0.6,6.5,1.6,9c0.9,2,2.1,3.6,3.6,4.9c2.6,2.1,5.1,2.3,5.2,2.3c0,0,0,0,0,0c0.1,0,0.2-0.1,0.2-0.2l0-0.5
	C31.8,32,31.7,31.9,31.6,31.9z M26.6,12.7H8.3l9.1-7.9L26.6,12.7z"/>
<g>
	<path fill="#FFFFFF" d="M64,22.2c0-1.1-0.9-1.9-1.9-1.9c-1.1,0-1.9,0.9-1.9,1.9s0.9,1.9,1.9,1.9C63.2,24.2,64,23.3,64,22.2z
		 M61,22.2c0-0.6,0.5-1.1,1.1-1.1s1.1,0.5,1.1,1.1c0,0.6-0.5,1.1-1.1,1.1S61,22.9,61,22.2z"/>
	<circle fill="#FFFFFF" cx="62.1" cy="22.2" r="0.4"/>
	<path fill="#FFFFFF" d="M73.9,23.4c1.2,0,2.3-1,2.3-2.3c0-1.2-1-2.3-2.3-2.3c-1.2,0-2.3,1-2.3,2.3C71.7,22.4,72.7,23.4,73.9,23.4z
		 M73.9,19.7c0.8,0,1.5,0.7,1.5,1.5s-0.7,1.5-1.5,1.5c-0.8,0-1.5-0.7-1.5-1.5S73.1,19.7,73.9,19.7z"/>
	<circle fill="#FFFFFF" cx="73.9" cy="21.1" r="0.5"/>
	<path fill="#FFFFFF" d="M89.2,25.7c-0.2,0-0.4,0.2-0.4,0.4v0.5l-4.1,2.1H83c0,0-0.1,0-0.1,0l0,0l-3.6,0.8v-0.3
		c0-0.2-0.2-0.4-0.4-0.4h-2.2c-0.1-0.4-0.5-0.6-1.1-0.6c0,0-0.1,0-0.1,0c0-0.1,0-0.2-0.1-0.2c3-0.7,5.3-3.5,5.3-6.7
		c0-3.8-3.1-6.9-6.9-6.9c-3.3,0-6,2.3-6.7,5.4c-1-1.9-2.9-3.1-5.1-3.1c-3.2,0-5.8,2.6-5.8,5.8c0,3,2.4,5.6,5.4,5.8c0,0,0,0,0,0.1
		v7.3c0,0.2,0.2,0.4,0.4,0.4h3.5v0.8c-0.2,0.1-0.4,0.4-0.4,0.7c0,0.4,0.4,0.8,0.8,0.8c0.4,0,0.8-0.4,0.8-0.8c0-0.3-0.2-0.6-0.4-0.7
		v-0.8h8.8c0.2,0,0.4-0.2,0.4-0.4v0H79c0.2,0,0.4-0.2,0.4-0.4v-0.3l3.6,0.9c0,0,0,0,0,0c0,0,0.1,0,0.1,0h1.7l4.1,2.2v0.5
		c0,0.2,0.2,0.4,0.4,0.4c0.2,0,0.4-0.2,0.4-0.4v-0.7V26.8v-0.7C89.6,25.9,89.5,25.7,89.2,25.7z M73.9,15c3.4,0,6.1,2.7,6.1,6.1
		c0,3.4-2.7,6.1-6.1,6.1c-3.4,0-6.1-2.7-6.1-6.1C67.9,17.8,70.6,15,73.9,15z M71.8,27.7h-7.7c1.7-0.6,3.1-2,3.6-3.8
		C68.4,25.6,69.9,27,71.8,27.7z M57.1,22.2c0-2.7,2.2-5,5-5s5,2.2,5,5s-2.2,5-5,5S57.1,25,57.1,22.2z M74.8,35h-8.4v-1
		c1-0.2,1.7-1,1.7-2.1c0-1.2-0.9-2.1-2.1-2.1c-1.2,0-2.1,0.9-2.1,2.1c0,1,0.7,1.9,1.7,2.1v1h-3.1v-6.5h12.3v0.1V35L74.8,35z
		 M66,31.5c-0.2,0-0.4,0.2-0.4,0.4v1.2c-0.5-0.2-0.9-0.7-0.9-1.2c0-0.7,0.6-1.3,1.3-1.3c0.7,0,1.3,0.6,1.3,1.3c0,0.6-0.4,1-0.9,1.2
		v-1.2C66.4,31.7,66.2,31.5,66,31.5z M78.6,34.6h-3v-5.7c0,0,0.1,0,0.1,0c0.3,0,0.3,0.1,0.3,0.2c0,0.2,0.2,0.4,0.4,0.4h2.1v0.4v4.3
		V34.6z M79.4,30.2l3.3-0.7v5.1l-3.3-0.8V30.2z M83.4,29.4h1v5.3h-1V29.4z M85.2,34.9v-5.6l3.6-1.8v9.4L85.2,34.9z"/>
</g>
<g id="eye">
	<path fill="#FFFFFF" d="M75.6,2.5c0-0.1-1.2-1.9-3.7-3.6C69.7-2.7,66-4.5,60.6-4.7c0,0-0.1,0-0.1,0v0c-0.1,0-0.2,0-0.2,0
		c0,0-0.1,0-0.1,0c0,0-0.1,0-0.1,0c-0.1,0-0.2,0-0.2,0v0c0,0-0.1,0-0.1,0c-5.4,0.2-9.1,2-11.3,3.6c-2.5,1.8-3.6,3.6-3.7,3.6
		l-0.2,0.3l0.2,0.3c0,0.1,1.2,1.9,3.7,3.6c2.2,1.6,5.9,3.4,11.3,3.6c0,0,0.1,0,0.1,0v0c0.1,0,0.2,0,0.2,0c0,0,0.1,0,0.1,0
		c0,0,0.1,0,0.1,0c0.1,0,0.2,0,0.2,0v0c0,0,0.1,0,0.1,0c5.4-0.2,9.1-2,11.3-3.6c2.5-1.8,3.6-3.6,3.7-3.6l0.2-0.3L75.6,2.5z
		 M66.6,2.8c0,3.4-2.7,6.2-6.1,6.4c-0.1,0-0.2,0-0.4,0c-0.1,0-0.2,0-0.4,0c-3.4-0.2-6.1-3-6.1-6.4c0-3.4,2.7-6.2,6.1-6.4
		c0.1,0,0.2,0,0.4,0c0.1,0,0.2,0,0.4,0C63.9-3.4,66.6-0.6,66.6,2.8z M49,5.9c-1.8-1.3-2.9-2.5-3.3-3.1C46.2,2.3,47.2,1,49-0.3
		c1.5-1,3.6-2.2,6.5-2.8c-1.8,1.4-2.9,3.5-2.9,5.9c0,2.4,1.1,4.6,2.9,5.9C52.6,8.1,50.5,6.9,49,5.9z M71.3,5.9
		c-1.5,1-3.6,2.2-6.5,2.8c1.8-1.4,2.9-3.5,2.9-5.9c0-2.4-1.1-4.6-2.9-5.9c2.9,0.7,5.1,1.8,6.5,2.8c1.8,1.3,2.9,2.5,3.3,3.1
		C74.1,3.4,73.1,4.6,71.3,5.9z"/>
	<path fill="#FFFFFF" d="M60.1-0.9c-2,0-3.7,1.6-3.7,3.7c0,2,1.6,3.7,3.7,3.7c2,0,3.7-1.6,3.7-3.7C63.8,0.8,62.2-0.9,60.1-0.9z
		 M60.1,5.4c-1.4,0-2.6-1.2-2.6-2.6c0-1.4,1.2-2.6,2.6-2.6c1.4,0,2.6,1.2,2.6,2.6C62.8,4.3,61.6,5.4,60.1,5.4z"/>
</g>
</svg>
